# xmcd CD database file
#
# Track frame offsets:
#	150
#	11736
#	41821
#
# Disc length: 927 seconds
#
# Revision: 0
# Processed by: cddbd v1.5.2PL0 Copyright (c) Steve Scherf et al.
# Submitted via: CDex 1.70beta2
#
DISCID=1f039d03
DTITLE=The Bosshoss - On The Sunny Side of The Street
DYEAR=2008
DGENRE=Country
TTITLE0=On The Sunny Side of The Street
TTITLE1=Shake and Shout (Low Voltage Version)
TTITLE2=On The Sunny Side of The Street (Video)
EXTD=YEAR: 2008
EXTT0=
EXTT1=
EXTT2=
PLAYORDER=
